<mxfile host="app.diagrams.net" modified="2023-11-28T18:25:51.606Z" agent="Mozilla/5.0 (Windows NT 10.0; Win64; x64) AppleWebKit/537.36 (KHTML, like Gecko) Chrome/119.0.0.0 Safari/537.36" version="22.1.4" etag="T4OgtfDwkbJhC-C-br29" type="github">
  <diagram name="Seite-1" id="uK9_VTooxn9uTFpsE9W-">
    <mxGraphModel>
      <root>
        <mxCell id="0" />
        <mxCell id="1" parent="0" />
      </root>
    </mxGraphModel>
  </diagram>
</mxfile>
